<?xml version="1.0" encoding="UTF-8" standalone="no"?>
<svg
   xmlns:dc="http://purl.org/dc/elements/1.1/"
   xmlns:cc="http://creativecommons.org/ns#"
   xmlns:rdf="http://www.w3.org/1999/02/22-rdf-syntax-ns#"
   xmlns:svg="http://www.w3.org/2000/svg"
   xmlns="http://www.w3.org/2000/svg"
   xmlns:sodipodi="http://sodipodi.sourceforge.net/DTD/sodipodi-0.dtd"
   xmlns:inkscape="http://www.inkscape.org/namespaces/inkscape"
   width="358.14066mm"
   height="423.81842mm"
   viewBox="0 0 358.14064 423.81842"
   version="1.1"
   id="svg1897"
   sodipodi:docname="test - Copy (2).svg"
   inkscape:version="1.0 (4035a4fb49, 2020-05-01)">
  <defs
     id="defs1891">
    <mask
       id="mask-powermask-path-effect1701"
       maskUnits="userSpaceOnUse">
      <path
         d="M -165.31142,-115.1607 H 141.1414 v 358.35395 h -306.45282 z"
         style="fill:#ffffff;fill-opacity:1"
         id="mask-powermask-path-effect1701_box" />
      <path
         d="m 98.40187,-114.16031 c -0.699109,0.0144 -1.248831,0.41013 -1.848459,1.00976 -0.555382,0.55539 -1.00975,1.60621 -1.00975,2.33526 0,0.72904 8.330479,10.945395 18.512569,22.703005 l 18.51308,21.377509 V -0.62614558 65.482979 L 69.457392,128.61557 6.3449645,191.74816 c 0.5806493,17.74057 0.1525905,33.91312 2.1630693,46.09676 0.62983,3.81675 5.3290602,4.34833 5.3290602,4.34833 0.4489,-17.01382 0.0728,-30.64891 0.0805,-47.95092 L 77.0295,131.1351 140.1414,68.027329 140.1279,-0.55657604 140.1144,-69.140515 120.64686,-91.650245 v 0 C 105.29605,-109.40052 100.89704,-114.21176 98.40015,-114.16028 Z M 21.312023,60.032674 c -4.168878,-0.003 -8.25686,1.724152 -10.986939,4.968687 -4.8541494,5.768819 -4.6551113,14.174809 0.45992,19.406568 l 2.596729,2.65565 -30.231197,30.240011 -30.231569,30.24002 h -44.290792 -44.290825 l -1.05265,-2.54146 c -1.3664,-3.29875 -5.12693,-6.42078 -9.20617,-7.64294 -12.88746,-3.86117 -23.82928,12.15386 -15.46107,22.62964 3.59455,4.4998 7.33304,6.2293 12.62197,5.83941 5.14106,-0.37891 9.7282,-3.41982 11.84063,-7.84963 l 1.36477,-2.86134 h 45.480935 45.481402 l 33.27686,-33.2393 C 12.939834,97.650201 22.479354,88.63921 23.872044,88.63921 c 2.931959,0 6.54748,-2.205599 9.099201,-5.55108 5.07819,-6.65787 2.95184,-17.003041 -4.343932,-21.135134 -2.28382,-1.2935 -4.813969,-1.918451 -7.31529,-1.920301 z m 73.008958,3.361547 c -1.165571,0 -22.246439,20.520689 -64.834788,63.111909 l -63.107658,63.11192 h -43.91348 -43.913075 l -0.57205,-1.89291 c -0.73065,-2.41858 -4.35495,-6.32886 -7.2838,-7.85897 -1.24978,-0.65289 -3.8175,-1.18753 -5.70663,-1.18753 -14.58607,0 -20.46865,18.10298 -8.5943,26.44854 6.97027,4.8989 17.42909,2.39425 20.96512,-5.02089 l 1.38959,-2.91454 h 45.061826 45.06122 L 33.470434,132.61481 C 68.999002,97.09738 98.067529,67.447259 98.067529,66.725799 c 0,-0.721469 -0.454358,-1.766438 -1.00974,-2.321819 -0.55539,-0.555401 -1.786858,-1.009759 -2.736808,-1.009759 z M 21.074813,67.09425 c 1.640351,-0.003 3.320852,0.69097 4.93149,2.0898 3.790892,3.292341 3.172031,9.22686 -1.19788,11.48664 -3.541858,1.83157 -5.687028,1.52028 -8.43049,-1.22319 -3.02894,-3.02895 -3.242289,-6.668709 -0.56637,-9.663491 1.596472,-1.786699 3.404211,-2.686148 5.26325,-2.689759 z M -149.77085,144.18 c 3.70856,-0.0889 7.17167,2.74672 7.17167,7.15047 0,4.10361 -3.04893,7.15253 -7.15255,7.15253 -6.52998,0 -9.68204,-7.83367 -4.92579,-12.24163 1.48484,-1.3761 3.22097,-2.02096 4.90667,-2.06137 z m 14.5428,41.70446 c 3.61176,-0.0518 6.93446,2.75894 6.93446,7.28689 0,7.23196 -8.74011,9.93672 -13.22659,4.09329 -1.67417,-2.18059 -1.27374,-6.49843 0.81442,-8.77829 1.61429,-1.7625 3.58583,-2.57477 5.47771,-2.60189 z"
         style="fill:none;fill-opacity:1;stroke:#000000;stroke-width:3;stroke-miterlimit:4;stroke-dasharray:none;stroke-opacity:0.992126"
         id="path1699"
         sodipodi:nodetypes="cssccccccscccccccsccsccccccccssscccccsssssscccccssscccccssscsssscssssssssss" />
    </mask>
    <clipPath
       clipPathUnits="userSpaceOnUse"
       id="clipPath2533">
      <g
         id="g2539"
         style="display:none">
        <path
           style="color:#000000;font-style:normal;font-variant:normal;font-weight:normal;font-stretch:normal;font-size:medium;line-height:normal;font-family:sans-serif;font-variant-ligatures:normal;font-variant-position:normal;font-variant-caps:normal;font-variant-numeric:normal;font-variant-alternates:normal;font-variant-east-asian:normal;font-feature-settings:normal;font-variation-settings:normal;text-indent:0;text-align:start;text-decoration:none;text-decoration-line:none;text-decoration-style:solid;text-decoration-color:#000000;letter-spacing:normal;word-spacing:normal;text-transform:none;writing-mode:lr-tb;direction:ltr;text-orientation:mixed;dominant-baseline:auto;baseline-shift:baseline;text-anchor:start;white-space:normal;shape-padding:0;shape-margin:0;inline-size:0;clip-rule:nonzero;display:inline;overflow:visible;visibility:visible;isolation:auto;mix-blend-mode:normal;color-interpolation:sRGB;color-interpolation-filters:linearRGB;solid-color:#000000;solid-opacity:1;vector-effect:none;fill:#000000;fill-opacity:1;fill-rule:nonzero;stroke:none;stroke-width:0;stroke-linecap:butt;stroke-linejoin:miter;stroke-miterlimit:4;stroke-dasharray:none;stroke-dashoffset:0;stroke-opacity:1;color-rendering:auto;image-rendering:auto;shape-rendering:auto;text-rendering:auto;enable-background:accumulate;stop-color:#000000;stop-opacity:1"
           d="m 98.401874,-114.16031 c -0.69911,0.0144 -1.24883,0.41013 -1.84846,1.00976 -0.55538,0.55539 -1.00975,1.60621 -1.00975,2.33526 0,0.72904 8.330476,10.945389 18.512566,22.702999 l 18.51308,21.37751 V -0.62615133 65.482979 L 69.457394,128.61557 6.3449638,191.74817 c 0.58065,17.74056 0.15259,33.91313 2.16307,46.09676 0.62983,3.81674 5.3290602,4.34832 5.3290602,4.34832 0.4489,-17.01381 0.0728,-30.64891 0.0805,-47.9509 L 77.029504,131.1351 140.1414,68.027329 140.1279,-0.55658133 140.1144,-69.140521 120.64686,-91.650251 v 0 C 105.29607,-109.40053 100.89705,-114.21177 98.400164,-114.16029 Z M 21.312024,60.032669 c -4.16888,-0.003 -8.25686,1.72415 -10.98694,4.96869 -4.8541502,5.76882 -4.6551102,14.17481 0.45992,19.40657 l 2.59673,2.65565 -30.2312,30.240011 -30.23157,30.24002 h -44.29079 -44.290824 l -1.05265,-2.54146 c -1.3664,-3.29875 -5.12693,-6.42078 -9.20617,-7.64294 -12.88746,-3.86117 -23.82928,12.15385 -15.46107,22.62963 3.59455,4.49982 7.33304,6.2293 12.62197,5.83943 5.14106,-0.37893 9.7282,-3.41984 11.84063,-7.84963 l 1.36477,-2.86134 h 45.480934 45.4814 l 33.27686,-33.23931 c 24.25581,-24.227791 33.79533,-33.238781 35.18802,-33.238781 2.93196,0 6.54748,-2.2056 9.0992,-5.55108 5.07819,-6.65787 2.95184,-17.00304 -4.34393,-21.13514 -2.28382,-1.2935 -4.81397,-1.91845 -7.31529,-1.9203 z m 73.00896,3.36155 c -1.16557,0 -22.24644,20.52069 -64.83479,63.111911 l -63.10766,63.11192 h -43.91348 -43.913074 l -0.57205,-1.8929 c -0.73065,-2.41859 -4.35495,-6.32885 -7.2838,-7.85896 -1.24978,-0.65291 -3.8175,-1.18753 -5.70663,-1.18753 -14.58607,0 -20.46865,18.10296 -8.5943,26.44853 6.97027,4.89889 17.42909,2.39424 20.96512,-5.02089 l 1.38959,-2.91455 h 45.061824 45.06122 l 64.59748,-64.57694 c 35.52857,-35.517431 64.5971,-65.167551 64.5971,-65.889011 0,-0.72147 -0.45436,-1.76644 -1.00974,-2.32182 -0.55539,-0.5554 -1.78686,-1.00976 -2.73681,-1.00976 z m -73.24617,3.70003 c 1.64035,-0.003 3.32085,0.69097 4.93149,2.0898 3.79089,3.29234 3.17203,9.22686 -1.19788,11.48664 -3.54186,1.83157 -5.68703,1.52028 -8.43049,-1.22319 -3.02894,-3.02895 -3.24229,-6.66871 -0.56637,-9.66349 1.59647,-1.7867 3.40421,-2.68615 5.26325,-2.68976 z M -149.77085,144.18 c 3.70856,-0.0889 7.17167,2.74672 7.17167,7.15047 0,4.10361 -3.04893,7.15254 -7.15255,7.15254 -6.52998,0 -9.68204,-7.83368 -4.92579,-12.24164 1.48484,-1.3761 3.22097,-2.02096 4.90667,-2.06137 z m 14.5428,41.70446 c 3.61176,-0.0518 6.93446,2.75894 6.93446,7.28689 0,7.23196 -8.74011,9.93674 -13.22659,4.09329 -1.67417,-2.18057 -1.27374,-6.49841 0.81442,-8.77829 1.61429,-1.7625 3.58583,-2.57477 5.47771,-2.60189 z"
           id="path2535" />
        <path
           style="color:#000000;font-style:normal;font-variant:normal;font-weight:normal;font-stretch:normal;font-size:medium;line-height:normal;font-family:sans-serif;font-variant-ligatures:normal;font-variant-position:normal;font-variant-caps:normal;font-variant-numeric:normal;font-variant-alternates:normal;font-variant-east-asian:normal;font-feature-settings:normal;font-variation-settings:normal;text-indent:0;text-align:start;text-decoration:none;text-decoration-line:none;text-decoration-style:solid;text-decoration-color:#000000;letter-spacing:normal;word-spacing:normal;text-transform:none;writing-mode:lr-tb;direction:ltr;text-orientation:mixed;dominant-baseline:auto;baseline-shift:baseline;text-anchor:start;white-space:normal;shape-padding:0;shape-margin:0;inline-size:0;clip-rule:nonzero;display:inline;overflow:visible;visibility:visible;isolation:auto;mix-blend-mode:normal;color-interpolation:sRGB;color-interpolation-filters:linearRGB;solid-color:#000000;solid-opacity:1;vector-effect:none;fill:#000000;fill-opacity:1;fill-rule:nonzero;stroke:none;stroke-width:0;stroke-linecap:butt;stroke-linejoin:miter;stroke-miterlimit:4;stroke-dasharray:none;stroke-dashoffset:0;stroke-opacity:1;color-rendering:auto;image-rendering:auto;shape-rendering:auto;text-rendering:auto;enable-background:accumulate;stop-color:#000000;stop-opacity:1"
           d="m 98.400391,-114.17578 v 0.002 c -0.703712,0.0155 -1.257575,0.41187 -1.857422,1.01172 -0.55943,0.55944 -1.015625,1.61196 -1.015625,2.34766 0,0.0532 0.03376,0.13346 0.09766,0.25195 0.0639,0.11849 0.159206,0.2727 0.283203,0.45898 0.247995,0.37258 0.613839,0.87785 1.083985,1.5 0.940291,1.2443 2.298799,2.95613 3.976558,5.01368 3.35553,4.115094 7.98504,9.609371 13.07617,15.488278 l 18.50781,21.373046 V -0.62695312 65.476562 L 69.445312,128.60352 6.328125,191.74219 v 0.006 c 0.5806312,17.73998 0.1531528,33.91337 2.1640625,46.09961 0.3159364,1.91456 1.6539055,3.00588 2.9101565,3.61718 1.256251,0.61131 2.433593,0.74414 2.433594,0.74414 l 0.01758,0.002 v -0.0176 c 0.448839,-17.01151 0.0725,-30.6456 0.08008,-47.94336 L 77.041016,131.14648 140.1582,68.033203 140.14453,-0.55664062 140.13086,-69.146484 120.6582,-91.660156 c -7.67542,-8.875174 -12.61201,-14.515834 -15.94336,-17.931644 -1.66567,-1.7079 -2.93077,-2.85987 -3.93554,-3.58203 -1.004075,-0.72165 -1.747779,-1.01449 -2.376956,-1.00195 -4.39e-4,1e-5 -0.0015,-1e-5 -0.002,0 z m 0,0.0312 h 0.002 c 0.618725,-0.0123 1.358073,0.27643 2.359379,0.99609 1.002,0.72017 2.26464,1.87087 3.92969,3.57813 3.33008,3.41451 8.26799,9.05458 15.94336,17.929685 l 19.46289,22.505859 0.0137,68.57812538 0.0137,68.57812462 L 77.017685,131.123 13.902451,194.23628 v 0.006 c -0.0077,17.29444 0.365912,30.92703 -0.08203,47.92969 -0.01864,-0.002 -1.163536,-0.13256 -2.404296,-0.73633 C 10.165194,240.82688 8.8373311,239.74398 8.5234375,237.8418 6.5136214,225.66219 6.9416943,209.49261 6.3613281,191.75391 L 69.46875,128.62695 132.58594,65.490234 V -0.62695312 -66.740234 l -18.51758,-21.382813 c -5.09096,-5.878704 -9.71899,-11.371589 -13.07422,-15.486333 -1.677616,-2.05736 -3.036699,-3.76993 -3.976562,-5.01367 -0.469931,-0.62186 -0.834679,-1.12644 -1.082031,-1.49804 -0.123676,-0.18581 -0.21815,-0.33808 -0.28125,-0.45508 -0.0631,-0.117 -0.09375,-0.20034 -0.09375,-0.23828 0,-0.72241 0.452576,-1.77288 1.003906,-2.32422 0.598172,-0.59817 1.143497,-0.99098 1.835938,-1.00586 z M 21.3125,60.017578 c -4.173307,-0.003 -8.266655,1.724236 -11,4.972656 -4.8592188,5.774844 -4.6599367,14.19195 0.460938,19.429688 l 2.585937,2.642578 -30.220703,30.23047 -30.226563,30.23437 h -44.283203 -44.281246 l -1.04883,-2.53125 c -1.36901,-3.30504 -5.13102,-6.42881 -9.21485,-7.65234 -12.90149,-3.86538 -23.85593,12.16699 -15.47851,22.6543 3.59668,4.50248 7.34182,6.23587 12.63476,5.8457 5.14663,-0.37934 9.73844,-3.42208 11.85352,-7.85742 l 1.36133,-2.85352 h 45.470701 45.488281 l 33.28125,-33.24414 C 0.8231772,109.77482 9.2725798,101.46654 14.863281,96.185547 c 2.795351,-2.640497 4.875073,-4.525121 6.34375,-5.748047 0.734339,-0.611463 1.31714,-1.056449 1.757813,-1.349609 0.440673,-0.293161 0.74079,-0.433594 0.90625,-0.433594 2.939984,0 6.559198,-2.208062 9.113281,-5.556641 5.084343,-6.665937 2.954965,-17.021116 -4.349609,-21.158203 -2.281535,-1.292205 -4.807771,-1.915475 -7.306641,-1.919922 v -0.002 z m 0,0.03125 c 2.498663,0.0018 5.025307,0.625877 7.306641,1.917969 7.286965,4.127113 9.41188,14.461525 4.339843,21.111328 -2.549356,3.342382 -6.163954,5.544922 -9.08789,5.544922 -0.182713,0 -0.483443,0.143232 -0.925782,0.4375 -0.442338,0.294268 -1.022977,0.741639 -1.757812,1.353515 -1.469671,1.223754 -3.552064,3.107323 -6.347656,5.748047 -5.5911838,5.281451 -14.0400237,13.591141 -26.167969,25.705081 l -33.271484,33.23437 h -45.47461 -45.490231 l -1.36914,2.8711 c -2.10978,4.42423 -6.69263,7.46132 -11.82813,7.83984 -5.28492,0.38957 -9.015,-1.33683 -12.60742,-5.83398 -8.359,-10.46426 2.56994,-26.46048 15.44336,-22.60352 4.07465,1.22079 7.83152,4.34035 9.19531,7.63281 l 1.05664,2.55274 h 44.302736 44.296875 l 30.236328,-30.2461 30.242188,-30.249997 -2.607422,-2.667969 C 5.6876888,79.170702 5.4888091,70.774515 10.337891,65.011719 13.064706,61.771059 17.148047,60.045831 21.3125,60.048828 Z m 73.007812,3.330078 c -0.04229,0 -0.09751,0.01992 -0.173828,0.06055 -0.07631,0.04063 -0.172369,0.101063 -0.287109,0.181641 -0.22948,0.161156 -0.536105,0.404253 -0.921875,0.726562 -0.771541,0.644618 -1.856822,1.611505 -3.259766,2.90625 C 86.871848,69.8434 82.795562,73.739712 77.425781,78.9668 66.68622,89.420973 50.768809,105.19851 29.474609,126.49414 l -63.103515,63.10742 h -43.90625 -43.900394 l -0.56836,-1.88086 c -0.36675,-1.21402 -1.45775,-2.7973 -2.82226,-4.26953 -1.36452,-1.47223 -3.00372,-2.83322 -4.47071,-3.59961 -1.25457,-0.65541 -3.82074,-1.18945 -5.71289,-1.18945 -7.29965,0 -12.42476,4.53052 -14.23632,10.10547 -1.81157,5.57494 -0.30984,12.19642 5.63281,16.37304 6.97853,4.9047 17.44758,2.39759 20.98828,-5.02734 l 1.38477,-2.90625 h 45.05273 45.066406 l 64.603516,-64.58008 c 17.764316,-17.75874 33.912833,-34.051689 45.621094,-45.994138 5.85413,-5.971224 10.598506,-10.854806 13.878906,-14.291015 1.6402,-1.718105 2.914899,-3.074097 3.779297,-4.023438 0.432199,-0.47467 0.760564,-0.84748 0.982422,-1.113281 0.110928,-0.1329 0.19545,-0.239432 0.251953,-0.318359 0.02825,-0.03946 0.04986,-0.07147 0.06445,-0.09766 0.0146,-0.02619 0.02344,-0.04451 0.02344,-0.0625 0,-0.728187 -0.456234,-1.774593 -1.015625,-2.333984 -0.560666,-0.560677 -1.792995,-1.013672 -2.748047,-1.013672 z m 0,0.03125 c 0.944849,0 2.17645,0.455736 2.726563,1.00586 0.55137,0.551369 1.003906,1.595794 1.003906,2.310546 0,0.0046 -0.004,0.02244 -0.01758,0.04688 -0.01362,0.02443 -0.03467,0.05682 -0.0625,0.0957 -0.05567,0.07776 -0.13935,0.181887 -0.25,0.314453 -0.221299,0.265131 -0.552339,0.63879 -0.984375,1.113281 -0.864071,0.948982 -2.137235,2.305428 -3.777344,4.023437 -3.280217,3.436019 -8.024832,8.319849 -13.878906,14.291016 -11.708147,11.942334 -27.85684,28.233501 -45.621094,45.992191 l -64.591796,64.57226 H -76.1875 -121.25977 l -1.39453,2.92383 c -3.53135,7.40533 -13.97939,9.90676 -20.9414,5.01367 -5.93171,-4.16894 -7.4268,-10.77301 -5.61914,-16.33594 1.80765,-5.56292 6.91866,-10.08203 14.20507,-10.08203 1.88612,0 4.45424,0.53514 5.69922,1.18555 1.46187,0.76372 3.09843,2.12172 4.46094,3.5918 1.36251,1.47007 2.45056,3.05324 2.81445,4.25781 l 0.57618,1.9043 h 43.923824 43.919922 l 63.113281,-63.11719 c 21.29415,-21.29559 37.211818,-37.07337 47.951172,-47.527345 5.369677,-5.226987 9.444521,-9.123776 12.25,-11.71289 1.402739,-1.294557 2.487035,-2.262271 3.257812,-2.90625 0.385389,-0.32199 0.691752,-0.56242 0.919922,-0.722656 0.114085,-0.08012 0.208778,-0.140064 0.283203,-0.179688 0.07443,-0.03962 0.129601,-0.05859 0.160156,-0.05859 z m -73.246093,3.667969 c -1.864181,0.0036 -3.6767,0.906127 -5.275391,2.695313 -1.340246,1.499949 -1.957107,3.162622 -1.859375,4.830078 0.09773,1.667455 0.911131,3.33886 2.427735,4.855468 1.37299,1.372996 2.597284,2.139556 3.923828,2.332032 1.326543,0.192475 2.752961,-0.188909 4.52539,-1.105469 4.379515,-2.264747 4.9999,-8.214525 1.201172,-11.513672 -1.612822,-1.400725 -3.298477,-2.096758 -4.943359,-2.09375 z m 0,0.03125 c 1.635817,-0.003 3.313417,0.689003 4.921875,2.085937 3.783052,3.285534 3.164992,9.206125 -1.195313,11.460938 -1.769431,0.91501 -3.186534,1.29466 -4.503906,1.103516 -1.317372,-0.191145 -2.537734,-0.953745 -3.908203,-2.324219 -1.512337,-1.512342 -2.320771,-3.175627 -2.417969,-4.833985 -0.0972,-1.658357 0.517842,-3.311809 1.853516,-4.80664 1.594249,-1.784215 3.3961,-2.681947 5.25,-2.685547 z M -149.77148,144.16406 c -1.68952,0.0405 -3.42845,0.68778 -4.91602,2.06641 -2.38288,2.20839 -2.7854,5.27606 -1.77344,7.79101 1.01196,2.51496 3.4376,4.47657 6.70899,4.47657 4.11154,0 7.16797,-3.05644 7.16797,-7.16797 0,-4.41214 -3.47056,-7.25512 -7.1875,-7.16602 z m 0.002,0.0312 c 3.70017,-0.0887 7.1543,2.73941 7.1543,7.13477 0,4.09568 -3.04103,7.13672 -7.13672,7.13672 -3.25859,0 -5.67219,-1.95316 -6.67969,-4.45703 -1.0075,-2.50388 -0.60774,-5.55629 1.76562,-7.75586 1.48211,-1.37357 3.2146,-2.01828 4.89649,-2.0586 z m 14.54101,41.67383 c -1.89629,0.0272 -3.87126,0.83999 -5.48828,2.60547 -1.04713,1.14327 -1.67013,2.79747 -1.82226,4.4375 -0.15214,1.64003 0.16529,3.26651 1.00586,4.36133 2.24702,2.92665 5.56249,3.71493 8.31445,2.86328 2.75196,-0.85165 4.94141,-3.34242 4.94141,-6.96484 0,-4.53578 -3.33098,-7.35466 -6.95118,-7.30274 z m 0,0.0312 c 3.60333,-0.0517 6.91797,2.75136 6.91797,7.27149 0,3.60953 -2.17825,6.08572 -4.91797,6.93359 -2.73971,0.84786 -6.03984,0.0672 -8.27929,-2.84961 -0.83361,-1.08575 -1.15158,-2.7078 -1,-4.3418 0.15157,-1.634 0.77342,-3.27941 1.81445,-4.41601 1.61156,-1.75952 3.57738,-2.5706 5.46484,-2.59766 z"
           id="path2537" />
      </g>
      <path
         class="powerclip"
         id="lpe_path-effect2541"
         d="M -169.32654,-119.17617 H 145.1582 v 366.38729 h -314.48474 z m 267.728414,5.01586 c -0.69911,0.0144 -1.24883,0.41013 -1.84846,1.00976 -0.55538,0.55539 -1.00975,1.60621 -1.00975,2.33526 0,0.72904 8.330476,10.945389 18.512566,22.702999 l 18.51308,21.37751 V -0.62615133 65.482979 L 69.457394,128.61557 6.3449638,191.74817 c 0.58065,17.74056 0.15259,33.91313 2.16307,46.09676 0.62983,3.81674 5.3290602,4.34832 5.3290602,4.34832 0.4489,-17.01381 0.0728,-30.64891 0.0805,-47.9509 L 77.029504,131.1351 140.1414,68.027329 140.1279,-0.55658133 140.1144,-69.140521 120.64686,-91.650251 v 0 C 105.29607,-109.40053 100.89705,-114.21177 98.400164,-114.16029 Z M 21.312024,60.032669 c -4.16888,-0.003 -8.25686,1.72415 -10.98694,4.96869 -4.8541502,5.76882 -4.6551102,14.17481 0.45992,19.40657 l 2.59673,2.65565 -30.2312,30.240011 -30.23157,30.24002 h -44.29079 -44.290824 l -1.05265,-2.54146 c -1.3664,-3.29875 -5.12693,-6.42078 -9.20617,-7.64294 -12.88746,-3.86117 -23.82928,12.15385 -15.46107,22.62963 3.59455,4.49982 7.33304,6.2293 12.62197,5.83943 5.14106,-0.37893 9.7282,-3.41984 11.84063,-7.84963 l 1.36477,-2.86134 h 45.480934 45.4814 l 33.27686,-33.23931 c 24.25581,-24.227791 33.79533,-33.238781 35.18802,-33.238781 2.93196,0 6.54748,-2.2056 9.0992,-5.55108 5.07819,-6.65787 2.95184,-17.00304 -4.34393,-21.13514 -2.28382,-1.2935 -4.81397,-1.91845 -7.31529,-1.9203 z m 73.00896,3.36155 c -1.16557,0 -22.24644,20.52069 -64.83479,63.111911 l -63.10766,63.11192 h -43.91348 -43.913074 l -0.57205,-1.8929 c -0.73065,-2.41859 -4.35495,-6.32885 -7.2838,-7.85896 -1.24978,-0.65291 -3.8175,-1.18753 -5.70663,-1.18753 -14.58607,0 -20.46865,18.10296 -8.5943,26.44853 6.97027,4.89889 17.42909,2.39424 20.96512,-5.02089 l 1.38959,-2.91455 h 45.061824 45.06122 l 64.59748,-64.57694 c 35.52857,-35.517431 64.5971,-65.167551 64.5971,-65.889011 0,-0.72147 -0.45436,-1.76644 -1.00974,-2.32182 -0.55539,-0.5554 -1.78686,-1.00976 -2.73681,-1.00976 z m -73.24617,3.70003 c -1.85904,0.0036 -3.66678,0.90306 -5.26325,2.68976 -2.67592,2.99478 -2.46257,6.63454 0.56637,9.66349 2.74346,2.74347 4.88863,3.05476 8.43049,1.22319 4.36991,-2.25978 4.98877,-8.1943 1.19788,-11.48664 -1.61064,-1.39883 -3.29114,-2.0928 -4.93149,-2.0898 z M -149.77085,144.18 c -1.6857,0.0404 -3.42183,0.68527 -4.90667,2.06137 -4.75625,4.40796 -1.60419,12.24164 4.92579,12.24164 4.10362,0 7.15255,-3.04893 7.15255,-7.15254 0,-4.40375 -3.46311,-7.23937 -7.17167,-7.15047 z m 14.5428,41.70446 c -1.89188,0.0271 -3.86342,0.83939 -5.47771,2.60189 -2.08816,2.27988 -2.48859,6.59772 -0.81442,8.77829 4.48648,5.84345 13.22659,3.13867 13.22659,-4.09329 0,-4.52795 -3.3227,-7.33869 -6.93446,-7.28689 z M 98.400391,-114.17578 v 0.002 c -0.703712,0.0155 -1.257575,0.41187 -1.857422,1.01172 -0.55943,0.55944 -1.015625,1.61196 -1.015625,2.34766 0,0.0532 0.03376,0.13346 0.09766,0.25195 0.0639,0.11849 0.159206,0.2727 0.283203,0.45898 0.247995,0.37258 0.613839,0.87785 1.083985,1.5 0.940291,1.2443 2.298799,2.95613 3.976558,5.01368 3.35553,4.115094 7.98504,9.609371 13.07617,15.488278 l 18.50781,21.373046 V -0.62695312 65.476562 L 69.445312,128.60352 6.328125,191.74219 v 0.006 c 0.5806312,17.73998 0.1531528,33.91337 2.1640625,46.09961 0.3159364,1.91456 1.6539055,3.00588 2.9101565,3.61718 1.256251,0.61131 2.433593,0.74414 2.433594,0.74414 l 0.01758,0.002 v -0.0176 c 0.448839,-17.01151 0.0725,-30.6456 0.08008,-47.94336 L 77.041016,131.14648 140.1582,68.033203 140.14453,-0.55664062 140.13086,-69.146484 120.6582,-91.660156 c -7.67542,-8.875174 -12.61201,-14.515834 -15.94336,-17.931644 -1.66567,-1.7079 -2.93077,-2.85987 -3.93554,-3.58203 -1.004075,-0.72165 -1.747779,-1.01449 -2.376956,-1.00195 -4.39e-4,1e-5 -0.0015,-1e-5 -0.002,0 z m 0,0.0312 v 5e-5 c -0.692441,0.0149 -1.237766,0.40769 -1.835938,1.00586 -0.55133,0.55134 -1.003906,1.60181 -1.003906,2.32422 0,0.0379 0.03065,0.12128 0.09375,0.23828 0.0631,0.117 0.157574,0.26927 0.28125,0.45508 0.247352,0.3716 0.6121,0.87618 1.082031,1.49804 0.939863,1.24374 2.298946,2.95631 3.976562,5.01367 3.35523,4.114744 7.98326,9.607629 13.07422,15.486333 l 18.51758,21.382813 V -0.62695312 65.490234 L 69.46875,128.62695 6.3613281,191.75391 c 0.5803662,17.7387 0.1522933,33.90828 2.1621094,46.08789 0.3138936,1.90218 1.6417565,2.98508 2.8926875,3.59384 1.24076,0.60377 2.385656,0.73433 2.404296,0.73633 0.447942,-17.00266 0.07433,-30.63525 0.08203,-47.92969 v -0.006 L 77.017685,131.123 140.12511,68.021434 140.11141,-0.55669062 140.09771,-69.134816 120.63482,-91.640675 c -7.67537,-8.875105 -12.61328,-14.515175 -15.94336,-17.929685 -1.66505,-1.70726 -2.92769,-2.85796 -3.92969,-3.57813 -1.001306,-0.71966 -1.740654,-1.00839 -2.359379,-0.99609 z M 21.3125,60.017578 c -4.173307,-0.003 -8.266655,1.724236 -11,4.972656 -4.8592188,5.774844 -4.6599367,14.19195 0.460938,19.429688 l 2.585937,2.642578 -30.220703,30.23047 -30.226563,30.23437 h -44.283203 -44.281246 l -1.04883,-2.53125 c -1.36901,-3.30504 -5.13102,-6.42881 -9.21485,-7.65234 -12.90149,-3.86538 -23.85593,12.16699 -15.47851,22.6543 3.59668,4.50248 7.34182,6.23587 12.63476,5.8457 5.14663,-0.37934 9.73844,-3.42208 11.85352,-7.85742 l 1.36133,-2.85352 h 45.470701 45.488281 l 33.28125,-33.24414 C 0.8231772,109.77482 9.2725798,101.46654 14.863281,96.185547 c 2.795351,-2.640497 4.875073,-4.525121 6.34375,-5.748047 0.734339,-0.611463 1.31714,-1.056449 1.757813,-1.349609 0.440673,-0.293161 0.74079,-0.433594 0.90625,-0.433594 2.939984,0 6.559198,-2.208062 9.113281,-5.556641 5.084343,-6.665937 2.954965,-17.021116 -4.349609,-21.158203 -2.281535,-1.292205 -4.807771,-1.915475 -7.306641,-1.919922 v -0.002 z m 0,0.03125 c -4.164453,-0.003 -8.247794,1.722231 -10.974609,4.962891 -4.8490819,5.762796 -4.6502022,14.158983 0.458984,19.384765 l 2.607422,2.667969 -30.242188,30.249997 -30.236328,30.2461 h -44.296875 -44.302736 l -1.05664,-2.55274 c -1.36379,-3.29246 -5.12066,-6.41202 -9.19531,-7.63281 -12.87342,-3.85696 -23.80236,12.13926 -15.44336,22.60352 3.59242,4.49715 7.3225,6.22355 12.60742,5.83398 5.1355,-0.37852 9.71835,-3.41561 11.82813,-7.83984 l 1.36914,-2.8711 h 45.490231 45.47461 l 33.271484,-33.23437 C 0.7998203,109.75325 9.2486602,101.44356 14.839844,96.162109 c 2.795592,-2.640724 4.877985,-4.524293 6.347656,-5.748047 0.734835,-0.611876 1.315474,-1.059247 1.757812,-1.353515 0.442339,-0.294268 0.743069,-0.4375 0.925782,-0.4375 2.923936,0 6.538534,-2.20254 9.08789,-5.544922 C 38.031021,76.428322 35.906106,66.09391 28.619141,61.966797 26.337807,60.674705 23.811163,60.050628 21.3125,60.048828 Z m 73.007812,3.330078 c -0.04229,0 -0.09751,0.01992 -0.173828,0.06055 -0.07631,0.04063 -0.172369,0.101063 -0.287109,0.181641 -0.22948,0.161156 -0.536105,0.404253 -0.921875,0.726562 -0.771541,0.644618 -1.856822,1.611505 -3.259766,2.90625 C 86.871848,69.8434 82.795562,73.739712 77.425781,78.9668 66.68622,89.420973 50.768809,105.19851 29.474609,126.49414 l -63.103515,63.10742 h -43.90625 -43.900394 l -0.56836,-1.88086 c -0.36675,-1.21402 -1.45775,-2.7973 -2.82226,-4.26953 -1.36452,-1.47223 -3.00372,-2.83322 -4.47071,-3.59961 -1.25457,-0.65541 -3.82074,-1.18945 -5.71289,-1.18945 -7.29965,0 -12.42476,4.53052 -14.23632,10.10547 -1.81157,5.57494 -0.30984,12.19642 5.63281,16.37304 6.97853,4.9047 17.44758,2.39759 20.98828,-5.02734 l 1.38477,-2.90625 h 45.05273 45.066406 l 64.603516,-64.58008 c 17.764316,-17.75874 33.912833,-34.051689 45.621094,-45.994138 5.85413,-5.971224 10.598506,-10.854806 13.878906,-14.291015 1.6402,-1.718105 2.914899,-3.074097 3.779297,-4.023438 0.432199,-0.47467 0.760564,-0.84748 0.982422,-1.113281 0.110928,-0.1329 0.19545,-0.239432 0.251953,-0.318359 0.02825,-0.03946 0.04986,-0.07147 0.06445,-0.09766 0.0146,-0.02619 0.02344,-0.04451 0.02344,-0.0625 0,-0.728187 -0.456234,-1.774593 -1.015625,-2.333984 -0.560666,-0.560677 -1.792995,-1.013672 -2.748047,-1.013672 z m 0,0.03125 v 5e-6 c -0.03056,0 -0.08573,0.01897 -0.160156,0.05859 -0.07443,0.03962 -0.169118,0.09957 -0.283203,0.179688 -0.22817,0.160236 -0.534533,0.400666 -0.919922,0.722656 -0.770777,0.643979 -1.855073,1.611693 -3.257812,2.90625 -2.805479,2.589114 -6.880323,6.485903 -12.25,11.71289 C 66.709865,89.44421 50.792197,105.22199 29.498047,126.51758 l -63.113281,63.11719 h -43.919922 -43.923824 l -0.57618,-1.9043 c -0.36389,-1.20457 -1.45194,-2.78774 -2.81445,-4.25781 -1.36251,-1.47008 -2.99907,-2.82808 -4.46094,-3.5918 -1.24498,-0.65041 -3.8131,-1.18555 -5.69922,-1.18555 -7.28641,0 -12.39742,4.51911 -14.20507,10.08203 -1.80766,5.56293 -0.31257,12.167 5.61914,16.33594 6.96201,4.89309 17.41005,2.39166 20.9414,-5.01367 l 1.39453,-2.92383 h 45.07227 45.054686 L 33.458982,132.60352 C 51.223236,114.84483 67.371929,98.553663 79.080076,86.611329 84.93415,80.640162 89.678765,75.756332 92.958982,72.320313 c 1.640109,-1.718009 2.913273,-3.074455 3.777344,-4.023437 0.432036,-0.474491 0.763076,-0.84815 0.984375,-1.113281 0.11065,-0.132566 0.19433,-0.236693 0.25,-0.314453 0.02783,-0.03888 0.04888,-0.07127 0.0625,-0.0957 0.01358,-0.02444 0.01758,-0.04228 0.01758,-0.04688 0,-0.714752 -0.452536,-1.759177 -1.003906,-2.310546 -0.550113,-0.550124 -1.781714,-1.00586 -2.726563,-1.00586 z m -73.246093,3.667969 c -1.864181,0.0036 -3.6767,0.906127 -5.275391,2.695313 -1.340246,1.499949 -1.957107,3.162622 -1.859375,4.830078 0.09773,1.667455 0.911131,3.33886 2.427735,4.855468 1.37299,1.372996 2.597284,2.139556 3.923828,2.332032 1.326543,0.192475 2.752961,-0.188909 4.52539,-1.105469 4.379515,-2.264747 4.9999,-8.214525 1.201172,-11.513672 -1.612822,-1.400725 -3.298477,-2.096758 -4.943359,-2.09375 z m 0,0.03125 c -1.8539,0.0036 -3.655751,0.901332 -5.25,2.685547 -1.335674,1.494831 -1.950716,3.148283 -1.853516,4.80664 0.0972,1.658358 0.905632,3.321643 2.417969,4.833985 1.370469,1.370474 2.590831,2.133074 3.908203,2.324219 1.317372,0.191144 2.734475,-0.188506 4.503906,-1.103516 4.360305,-2.254813 4.978365,-8.175404 1.195313,-11.460938 -1.608458,-1.396934 -3.286058,-2.088937 -4.921875,-2.085937 z M -149.77148,144.16406 c -1.68952,0.0405 -3.42845,0.68778 -4.91602,2.06641 -2.38288,2.20839 -2.7854,5.27606 -1.77344,7.79101 1.01196,2.51496 3.4376,4.47657 6.70899,4.47657 4.11154,0 7.16797,-3.05644 7.16797,-7.16797 0,-4.41214 -3.47056,-7.25512 -7.1875,-7.16602 z m 0.002,0.0312 c -1.68189,0.0403 -3.41438,0.68503 -4.89649,2.0586 -2.37336,2.19957 -2.77312,5.25198 -1.76562,7.75586 1.0075,2.50387 3.4211,4.45703 6.67969,4.45703 4.09569,0 7.13672,-3.04104 7.13672,-7.13672 0,-4.39536 -3.45413,-7.22347 -7.1543,-7.13477 z m 14.54101,41.67383 c -1.89629,0.0272 -3.87126,0.83999 -5.48828,2.60547 -1.04713,1.14327 -1.67013,2.79747 -1.82226,4.4375 -0.15214,1.64003 0.16529,3.26651 1.00586,4.36133 2.24702,2.92665 5.56249,3.71493 8.31445,2.86328 2.75196,-0.85165 4.94141,-3.34242 4.94141,-6.96484 0,-4.53578 -3.33098,-7.35466 -6.95118,-7.30274 z m 0,0.0312 c -1.88746,0.0271 -3.85328,0.83814 -5.46484,2.59766 -1.04103,1.1366 -1.66288,2.78201 -1.81445,4.41601 -0.15158,1.634 0.16639,3.25605 1,4.3418 2.23945,2.91681 5.53958,3.69747 8.27929,2.84961 2.73972,-0.84787 4.91797,-3.32406 4.91797,-6.93359 0,-4.52013 -3.31464,-7.32319 -6.91797,-7.27149 z" />
    </clipPath>
  </defs>
  <sodipodi:namedview
     id="base"
     pagecolor="#ffffff"
     bordercolor="#666666"
     borderopacity="1.0"
     inkscape:pageopacity="0.0"
     inkscape:pageshadow="2"
     inkscape:zoom="0.69999999"
     inkscape:cx="732.17433"
     inkscape:cy="800.64776"
     inkscape:document-units="mm"
     inkscape:current-layer="layer1"
     inkscape:document-rotation="0"
     showgrid="false"
     fit-margin-top="0"
     fit-margin-left="0"
     fit-margin-right="0"
     fit-margin-bottom="0"
     inkscape:window-width="1920"
     inkscape:window-height="1001"
     inkscape:window-x="-9"
     inkscape:window-y="-9"
     inkscape:window-maximized="1" />
  <metadata
     id="metadata1894">
    <rdf:RDF>
      <cc:Work
         rdf:about="">
        <dc:format>image/svg+xml</dc:format>
        <dc:type
           rdf:resource="http://purl.org/dc/dcmitype/StillImage" />
        <dc:title />
      </cc:Work>
    </rdf:RDF>
  </metadata>
  <g
     inkscape:label="Layer 1"
     inkscape:groupmode="layer"
     id="layer1"
     transform="translate(228.79664,138.20327)">
    <g
       id="g4918"
       transform="translate(157.64642,-42.54362)">
      <ellipse
         ry="29.073795"
         rx="29.073799"
         cy="228.78386"
         cx="-80.521797"
         id="path1305-3-4"
         style="fill:none;fill-opacity:1;stroke:#000000;stroke-width:3.24491;stroke-miterlimit:4;stroke-dasharray:none;stroke-opacity:0.38" />
      <path
         id="path833-0"
         style="fill:#000000;fill-opacity:0.38;stroke-width:0.0605735"
         d="m -88.306431,207.10711 c -0.21922,0.007 -0.45533,0.0878 -0.72309,0.29909 -0.65584,-0.25299 -1.29188,-0.34087 -1.86076,0.17414 -0.87796,-0.11392 -1.16364,0.1212 -1.37995,0.39564 -0.19278,-0.004 -1.442811,-0.19821 -2.015991,0.65684 -1.44053,-0.17042 -1.89575,0.8473 -1.37992,1.79639 -0.29422,0.45544 -0.59906,0.90541 0.0889,1.77368 -0.24338,0.4836 -0.0926,1.00819 0.48081,1.64306 -0.1513,0.67981 0.14611,1.15945 0.67955,1.53329 -0.0998,0.93026 0.8531,1.47117 1.13767,1.66388 0.10926,0.54206 0.336951,1.05355 1.425371,1.3364 0.1795,0.80783 0.83363,0.94732 1.46703,1.11685 -2.09356,1.21689 -3.888881,2.81806 -3.876731,6.74642 l -0.30666,0.54705 c -2.40059,1.45997 -4.56032,6.15225 -1.18308,9.96629 0.22059,1.19381 0.59057,2.05128 0.91998,3.00031 0.49269,3.82405 3.708181,5.61468 4.556281,5.82644 1.24277,0.94665 2.56641,1.84488 4.35753,2.47406 1.68851,1.74148 3.51776,2.40518 5.35701,2.40403 0.027,-2e-5 0.0544,2.3e-4 0.0813,0 1.83924,0.002 3.66849,-0.66255 5.356987,-2.40403 1.791135,-0.62918 3.114774,-1.52741 4.357534,-2.47406 0.848102,-0.21176 4.063594,-2.00239 4.556305,-5.82644 0.329391,-0.94903 0.699354,-1.8065 0.919964,-3.00031 3.377233,-3.81404 1.217509,-8.50632 -1.183087,-9.96629 l -0.306657,-0.54705 c 0.01221,-3.92836 -1.783183,-5.52953 -3.876734,-6.74642 0.633412,-0.16953 1.287525,-0.30902 1.467029,-1.11685 1.088405,-0.28285 1.316119,-0.79434 1.425381,-1.3364 0.28455,-0.19271 1.237419,-0.73362 1.13766,-1.66388 0.533442,-0.37384 0.830856,-0.85348 0.679545,-1.53329 0.57334,-0.63487 0.724196,-1.15946 0.480806,-1.64306 0.688027,-0.86827 0.383186,-1.31824 0.08902,-1.77368 0.515815,-0.94909 0.06058,-1.96681 -1.379953,-1.79639 -0.573169,-0.85505 -1.823188,-0.66083 -2.015966,-0.65684 -0.216313,-0.27444 -0.502003,-0.50956 -1.379953,-0.39564 -0.568892,-0.51501 -1.204916,-0.42713 -1.86076,-0.17414 -0.778925,-0.61468 -1.294604,-0.12196 -1.883462,0.0643 -0.943362,-0.30818 -1.158942,0.11393 -1.622242,0.28584 -1.02826,-0.21735 -1.340827,0.25583 -1.834237,0.75527 l -0.57356,-0.0115 c -1.55133,0.91424 -2.32203,2.77584 -2.59522,3.73287 -0.27331,-0.95719 -1.04226,-2.81877 -2.59333,-3.73287 l -0.57355,0.0115 c -0.49342,-0.49944 -0.806,-0.97262 -1.83425,-0.75527 -0.46328,-0.17191 -0.67888,-0.59402 -1.62223,-0.28584 -0.38645,-0.12226 -0.74184,-0.37642 -1.16039,-0.36344 z m 0.0548,1.09802 c 0.78781,0.2918 1.19362,0.66849 1.62083,1.04041 0.14484,-0.19549 0.36797,-0.33877 0.0985,-0.81042 0.55935,0.32243 0.98067,0.70232 1.29228,1.12796 0.34608,-0.22037 0.20622,-0.52168 0.2081,-0.79941 0.58132,0.47286 0.95017,0.97609 1.40173,1.4675 0.0909,-0.0663 0.17068,-0.29093 0.241,-0.64621 1.38686,1.34546 3.34645,4.73441 0.50374,6.0781 -2.41802,-1.99574 -5.30732,-3.44596 -8.50931,-4.53393 4.11584,2.12198 6.5085,3.83858 7.81935,5.30056 -0.67131,2.69054 -4.1733,2.81326 -5.45377,2.73778 0.26218,-0.12204 0.48095,-0.26815 0.55852,-0.49276 -0.32132,-0.22835 -1.46064,-0.0241 -2.25603,-0.47098 0.30555,-0.0633 0.44852,-0.12495 0.59143,-0.35043 -0.75146,-0.23967 -1.56098,-0.44614 -2.03703,-0.84319 0.25691,0.003 0.49677,0.0574 0.8323,-0.17533 -0.67309,-0.36273 -1.39135,-0.65013 -1.949371,-1.20462 0.348021,-0.008 0.723331,-0.004 0.832421,-0.13143 -0.616071,-0.38166 -1.135951,-0.80603 -1.566171,-1.27029 0.48701,0.0589 0.69269,0.008 0.81041,-0.0766 -0.46566,-0.47696 -1.05503,-0.87973 -1.33605,-1.46748 0.3616,0.12463 0.69241,0.17228 0.93086,-0.0111 -0.15824,-0.35699 -0.83619,-0.56749 -1.22651,-1.40171 0.38065,0.037 0.78442,0.083 0.86518,0 -0.177,-0.72013 -0.48016,-1.12486 -0.77752,-1.54416 0.81473,-0.0122 2.049061,0.003 1.993141,-0.0657 l -0.503751,-0.51465 c 0.795791,-0.21426 1.609981,0.0344 2.201121,0.21899 0.26544,-0.20944 -0.004,-0.47435 -0.32853,-0.74474 0.6763,0.0903 1.28752,0.24579 1.83992,0.45997 0.29514,-0.26649 -0.19164,-0.53292 -0.42709,-0.79941 1.04486,0.19823 1.48744,0.47675 1.92735,0.75563 0.31918,-0.30594 0.0183,-0.56594 -0.19709,-0.8323 z m 15.552816,0 c -0.2154,0.26635 -0.516291,0.52635 -0.197099,0.83231 0.439917,-0.2789 0.8825,-0.55741 1.927353,-0.75564 -0.235457,0.26648 -0.722225,0.53293 -0.427096,0.79941 0.552413,-0.2142 1.163512,-0.3697 1.839813,-0.45999 -0.323849,0.27041 -0.593967,0.53531 -0.328535,0.74476 0.591131,-0.18462 1.405448,-0.43326 2.201243,-0.219 l -0.503763,0.51465 c -0.05595,0.0689 1.17842,0.0536 1.993147,0.0657 -0.297354,0.41928 -0.60052,0.82402 -0.777526,1.54417 0.08071,0.083 0.484524,0.0369 0.86519,0 -0.390316,0.83421 -1.068376,1.04472 -1.226621,1.4017 0.23843,0.18329 0.569367,0.13564 0.930976,0.011 -0.281033,0.58777 -0.8705,0.99054 -1.336177,1.46751 0.11772,0.0848 0.323394,0.13545 0.810419,0.0766 -0.430239,0.46425 -0.949992,0.88863 -1.566064,1.27028 0.109094,0.12799 0.484292,0.12293 0.832301,0.13144 -0.558022,0.55448 -1.27618,0.84189 -1.949248,1.20462 0.335535,0.23268 0.575394,0.17851 0.832312,0.17533 -0.476076,0.39704 -1.285587,0.60352 -2.037039,0.84318 0.142912,0.22547 0.285889,0.28713 0.591431,0.35044 -0.795386,0.44684 -1.934719,0.24262 -2.256029,0.47098 0.07754,0.22461 0.296339,0.37072 0.558526,0.49276 -1.280477,0.0754 -4.782473,-0.0472 -5.45377,-2.73779 1.310837,-1.46197 3.703388,-3.17858 7.819227,-5.30055 -3.201992,1.08798 -6.09118,2.53818 -8.509207,4.53392 -2.84269,-1.34369 -0.8831,-4.73264 0.50376,-6.07809 0.0704,0.35528 0.15003,0.57997 0.241,0.64619 0.45156,-0.4914 0.820407,-0.99462 1.401707,-1.46748 0.002,0.27772 -0.13798,0.57903 0.20811,0.7994 0.31162,-0.42564 0.73292,-0.80553 1.292282,-1.12794 -0.269422,0.47165 -0.04625,0.61493 0.09851,0.81041 0.427214,-0.37193 0.833017,-0.74862 1.620824,-1.04041 z m -8.051946,11.08301 c 0.0708,-0.002 0.14161,-0.002 0.2126,3.7e-4 2.01578,-0.0222 4.511607,1.50408 4.501617,2.94209 -0.008,1.26925 -1.752847,2.2968 -4.486117,2.27721 -2.67653,-0.032 -4.47899,-1.29125 -4.47264,-2.52116 0.006,-0.98058 2.05137,-2.64891 4.24454,-2.6985 z m -6.47726,0.85525 c 0.39753,0.002 0.80618,0.0377 1.22248,0.10801 1.40212,0.23558 -6.72035,7.32827 -6.84556,5.746 -0.11355,-3.67582 2.38606,-5.87168 5.62308,-5.85401 z m 12.961257,0.12115 c 3.237023,-0.0177 5.736621,2.17819 5.62308,5.85402 -0.125203,1.58226 -8.247677,-5.51045 -6.84556,-5.74601 0.4163,-0.0703 0.82497,-0.10584 1.22248,-0.10801 z m -1.33782,4.40414 a 5.2172075,4.4218224 55.965775 0 1 3.59728,9.3343 5.2172075,4.4218224 55.965775 0 1 -5.752507,-8.70511 5.2172075,4.4218224 55.965775 0 1 2.155227,-0.62919 z m -9.824677,0.2423 a 4.4218224,5.2172075 34.034225 0 1 2.15522,0.62918 4.4218224,5.2172075 34.034225 1 1 -5.75251,8.70511 4.4218224,5.2172075 34.034225 0 1 3.59729,-9.33429 z m 17.237283,2.67035 c 0.06184,-0.002 0.127227,0.007 0.196149,0.0259 3.659654,2.08982 3.023904,6.73956 1.049992,8.32737 -1.73843,0.77229 -3.164096,-8.32148 -1.246141,-8.35328 z m -25.095204,0.12114 c 1.917951,0.0319 0.492281,9.12555 -1.24615,8.35328 -1.97391,-1.5878 -2.60967,-6.23754 1.05,-8.32737 0.0689,-0.0186 0.13427,-0.0269 0.19615,-0.0259 z m 12.853251,6.27838 a 4.9301138,4.5461756 0 0 1 4.943147,4.54625 4.9301138,4.5461756 0 1 1 -9.860167,0 4.9301138,4.5461756 0 0 1 4.91702,-4.54625 z m 10.909683,1.69276 c 0.385091,-0.0105 0.745531,0.0981 1.070571,0.34948 0.87525,0.87183 1.388644,4.15596 -0.143631,6.12247 -2.110176,2.92798 -4.966815,3.04198 -6.030996,2.22644 -1.11302,-1.04995 -0.26343,-4.30928 1.262224,-6.09631 1.309387,-1.47846 2.686546,-2.57196 3.841832,-2.60208 z m -22.285503,0.69567 c 1.27077,-0.0261 2.83051,0.97812 4.09476,2.44506 1.41011,1.69886 2.05286,4.68354 0.87608,5.56334 -1.11329,0.67163 -3.81691,0.39496 -5.73853,-2.36557 -1.295991,-2.31645 -1.128921,-4.67361 -0.219,-5.36611 0.29767,-0.18133 0.63086,-0.26942 0.98669,-0.27672 z m 11.78884,8.13298 c 1.92396,0.0119 4.259997,0.70479 4.264887,1.60567 0.0329,0.93315 -2.410197,3.04154 -4.774807,3.00078 -2.44883,0.10563 -4.85017,-2.00598 -4.81869,-2.73791 -0.0367,-1.07311 2.98179,-1.91092 4.95002,-1.86168 0.12379,-0.005 0.25032,-0.007 0.37859,-0.007 z" />
    </g>
    <g
       id="g4904"
       transform="translate(237.92232,-227.26581)">
      <ellipse
         style="fill:none;fill-opacity:1;stroke:#000000;stroke-width:3.82658;stroke-miterlimit:4;stroke-dasharray:none;stroke-opacity:0.38"
         id="path1305-1"
         cx="-185.13824"
         cy="218.88019"
         rx="20.975052"
         ry="20.97505" />
      <path
         style="fill:#000000;stroke:#000000;stroke-opacity:0.38"
         id="path889-4"
         stroke-width="1.47088"
         d="m -179.30203,218.62907 h 4.59651 m -2.34422,-2.29826 v 4.59651" />
      <path
         d="m -193.64315,212.42377 c -4.37127,-0.34795 -8.04389,4.82634 -6.25125,8.82531 1.74667,4.3391 8.31969,5.51581 11.44531,2.04084 3.0291,-2.96934 4.19661,-7.53827 7.906,-9.88249 3.76914,-2.57405 9.83653,-0.14342 10.57197,4.43103 0.71705,4.38048 -4.00356,8.64144 -8.27371,7.35442 -3.15781,-0.71245 -5.42388,-3.41061 -6.71091,-6.25125 -1.58579,-2.71194 -3.65882,-5.60774 -6.89477,-6.34318 -0.57456,-0.13054 -1.16751,-0.18203 -1.75586,-0.18111 z"
         stroke-width="2.71194"
         id="path885-4"
         style="fill:none;stroke:#000000;stroke-opacity:0.38" />
      <path
         style="fill:#000000;stroke:#000000;stroke-opacity:0.38"
         id="path887-5"
         stroke-width="1.14913"
         d="m -196.21719,218.62907 h 5.51581" />
    </g>
    <path
       style="fill:#000000;fill-opacity:0.380047;stroke:none;stroke-width:4.522;stroke-miterlimit:2.5;stroke-dasharray:none;stroke-opacity:0.308789"
       d="m 72.74915,-113.49404 c 1.62177,1.69611 10.39331,11.71016 19.4923,22.253444 l 16.54362,19.16961 V -5.3170061 61.436976 l -86.018487,88.155304 -61.676832,61.69695 v 35.46852 c 0,33.8699 -0.0718,35.55603 -1.59319,37.40993 -1.29767,1.5813 -1.8697,1.77228 -3.08384,1.0296 -1.3993,-0.85593 -2.000353,-3.22524 -1.70231,-38.65081 l -0.21166,-37.739 L 16.181653,147.1327 102.20621,58.999596 V -5.4055061 -69.810616 l -17.93557,-20.71097 c -9.86457,-11.391034 -18.20805,-21.165904 -18.54108,-21.721924 -0.85845,-1.43326 0.89655,-4.33437 2.62203,-4.33437 0.79688,0 2.77578,1.38773 4.39756,3.08384 z M -1.7581517,54.816596 c 6.08441,2.64938 9.84847,10.97369 7.78677,17.2207 -1.20474,3.65039 -6.41154998,8.40535 -10.01971,9.15019 -2.21411,0.45706 -32.7601073,32.635224 -55.4780973,55.163294 -15.60424,15.47378 -30.477036,30.05789 -33.05067,32.40914 l -4.67933,4.275 h -43.967221 -43.96722 l -2.1224,3.62162 c -2.3137,3.94805 -7.43635,7.06902 -11.60278,7.06902 -6.98486,0 -13.71125,-6.7065 -13.81792,-13.77707 -0.20009,-13.26345 15.855,-19.38316 24.35379,-9.28291 1.15336,1.37069 2.33256,3.23429 2.62045,4.14132 0.51508,1.62291 1.20656,1.64913 43.43619,1.64777 l 42.912761,-0.002 30.32864,-29.80907 54.670307,-56.267424 -2.95244,-3.10762 c -3.21016,-3.37888 -4.29731,-7.02469 -3.61394,-12.11957 1.1383,-8.48666 11.0852303,-13.85025 19.1628203,-10.33299 z m -8.9582903,6.3691 c -2.76412,1.47218 -3.79742,3.27831 -3.82599,6.68751 -0.0359,4.28919 2.84759,7.15825 7.1943403,7.15825 4.3518,0 7.13340002,-2.93814 7.13340002,-7.53485 0,-5.5916 -5.56890002,-8.93816 -10.50175032,-6.31091 z M -204.02567,164.27802 c -2.31868,2.56666 -2.75429,5.40089 -1.30086,8.46378 2.70672,5.70399 11.4244,5.22073 13.3924,-0.74238 2.50544,-7.59154 -6.82582,-13.55027 -12.09154,-7.7214 z M 66.37491,58.231866 c 0.71076,0.71075 1.29228,1.72274 1.29228,2.24886 0,0.52612 -47.29775,50.378314 -87.039129,90.132324 l -62.69746,62.71739 H -126.6342 c -43.88252,0 -44.57281,0.0252 -45.08821,1.64916 -0.77512,2.44217 -4.39149,6.46492 -7.04576,7.83749 -2.76294,1.42877 -9.186,1.58167 -11.71554,0.27888 -10.74972,-5.53646 -10.92914,-20.61227 -0.30272,-25.43682 4.32087,-1.96174 7.47411,-1.97568 11.6642,-0.0516 3.75412,1.72389 5.09657,3.92829 6.91245,6.88404 l 0.85925,2.25995 h 43.40177 43.401771 l 61.67272,-61.67679 C 11.045732,111.15251 63.57718,56.939586 64.11137,56.939586 c 0.5342,0 1.55279,0.58152 2.26354,1.29228 z M -188.53102,203.84834 c -4.37719,2.26354 -4.9714,8.90005 -1.07155,11.96768 4.20353,3.3065 10.20152,1.49135 12.02487,-3.63903 0.86449,-2.43242 -1.02736,-6.9575 -3.46146,-8.27939 -3.27399,-1.28118 -5.23088,-1.1892 -7.49186,-0.0493 z"
       id="path2958"
       sodipodi:nodetypes="sscccccsssscccccsssscsssscccsssssccccssccsssssssssssscssssssscccssscssccc" />
  </g>
</svg>
