<?xml version="1.0" encoding="UTF-8" standalone="no"?>
<svg
   xmlns:dc="http://purl.org/dc/elements/1.1/"
   xmlns:cc="http://creativecommons.org/ns#"
   xmlns:rdf="http://www.w3.org/1999/02/22-rdf-syntax-ns#"
   xmlns:svg="http://www.w3.org/2000/svg"
   xmlns="http://www.w3.org/2000/svg"
   xmlns:sodipodi="http://sodipodi.sourceforge.net/DTD/sodipodi-0.dtd"
   xmlns:inkscape="http://www.inkscape.org/namespaces/inkscape"
   width="69.999863mm"
   height="69.999863mm"
   viewBox="0 0 69.999862 69.999863"
   version="1.1"
   id="svg8"
   inkscape:version="1.0 (4035a4fb49, 2020-05-01)"
   sodipodi:docname="favicon - Copy.svg">
  <defs
     id="defs2">
    <rect
       x="50.647575"
       y="36.081387"
       width="24.856066"
       height="39.422256"
       id="rect861" />
    <rect
       x="-0.8018086"
       y="-0.53453904"
       width="99.958801"
       height="99.691536"
       id="rect843" />
    <rect
       x="47.625"
       y="49.136906"
       width="33.261906"
       height="51.404762"
       id="rect835" />
    <rect
       id="rect843-1"
       height="99.691536"
       width="99.958801"
       y="-0.53453904"
       x="-0.8018086" />
    <rect
       id="rect874"
       height="99.691536"
       width="99.958801"
       y="-0.53453904"
       x="-0.8018086" />
    <rect
       id="rect843-2"
       height="99.691536"
       width="99.958801"
       y="-0.53453904"
       x="-0.8018086" />
    <rect
       id="rect947"
       height="99.691536"
       width="99.958801"
       y="-0.53453904"
       x="-0.8018086" />
    <clipPath
       clipPathUnits="userSpaceOnUse"
       id="clipPath969">
      <rect
         style="fill:#000000;fill-opacity:1;stroke:#ffffff;stroke-width:1;stroke-miterlimit:4;stroke-dasharray:none;stroke-opacity:1"
         id="rect971"
         width="24.379465"
         height="18.898809"
         x="0.21418063"
         y="34.003334" />
    </clipPath>
    <rect
       x="-0.8018086"
       y="-0.53453904"
       width="99.958801"
       height="99.691536"
       id="rect843-1-9" />
    <rect
       x="-0.8018086"
       y="-0.53453904"
       width="99.958801"
       height="99.691536"
       id="rect1003" />
    <rect
       id="rect843-8"
       height="99.691536"
       width="99.958801"
       y="-0.53453904"
       x="-0.8018086" />
    <rect
       id="rect1033"
       height="99.691536"
       width="99.958801"
       y="-0.53453904"
       x="-0.8018086" />
  </defs>
  <sodipodi:namedview
     id="base"
     pagecolor="#ffffff"
     bordercolor="#666666"
     borderopacity="1.0"
     inkscape:pageopacity="0.0"
     inkscape:pageshadow="2"
     inkscape:zoom="1.4"
     inkscape:cx="-38.496718"
     inkscape:cy="211.86537"
     inkscape:document-units="mm"
     inkscape:current-layer="layer1"
     inkscape:document-rotation="0"
     showgrid="false"
     showguides="false"
     fit-margin-top="0"
     fit-margin-left="0"
     fit-margin-right="0"
     fit-margin-bottom="0"
     inkscape:window-width="1920"
     inkscape:window-height="1001"
     inkscape:window-x="-9"
     inkscape:window-y="-9"
     inkscape:window-maximized="1" />
  <metadata
     id="metadata5">
    <rdf:RDF>
      <cc:Work
         rdf:about="">
        <dc:format>image/svg+xml</dc:format>
        <dc:type
           rdf:resource="http://purl.org/dc/dcmitype/StillImage" />
        <dc:title></dc:title>
      </cc:Work>
    </rdf:RDF>
  </metadata>
  <g
     inkscape:label="Layer 1"
     inkscape:groupmode="layer"
     id="layer1"
     transform="translate(-13.692349,-5.0741136)">
    <text
       xml:space="preserve"
       style="font-size:3.52777px;line-height:1.25;font-family:'Times New Roman';-inkscape-font-specification:'Times New Roman, ';stroke-width:0.264583"
       x="40.758602"
       y="45.836723"
       id="text857"><tspan
         sodipodi:role="line"
         id="tspan855"
         x="40.758602"
         y="45.836723"
         style="stroke-width:0.264583" /></text>
    <path
       transform="matrix(0.26458333,0,0,0.26458333,10.839293,2.0324388)"
       d="M 143.06641,11.496094 A 132.28346,132.28348 0 0 0 10.783203,143.7793 132.28346,132.28348 0 0 0 143.06641,276.0625 132.28346,132.28348 0 0 0 275.34961,143.7793 132.28346,132.28348 0 0 0 143.06641,11.496094 Z m 32.05078,37.46289 a 94.488189,94.488197 0 0 1 0.47265,0 94.488189,94.488197 0 0 1 94.48828,94.488286 94.488189,94.488197 0 0 1 -94.48828,94.48828 94.488189,94.488197 0 0 1 -94.488278,-94.48828 94.488189,94.488197 0 0 1 94.015628,-94.488286 z"
       style="fill:#000000;stroke:none;stroke-width:3.97149"
       id="path857" />
    <ellipse
       style="fill:#000000;stroke:none;stroke-width:0.429498"
       id="path857-7"
       cx="63.283497"
       cy="47.673061"
       rx="14.305801"
       ry="14.305804" />
  </g>
</svg>
